<svg width="75" height="75" viewBox="0 0 75 75" fill="none" xmlns="http://www.w3.org/2000/svg">
<g clip-path="url(#clip0)">
<path d="M15.816 42.6647C15.5434 42.3921 15.1667 42.2352 14.7799 42.2352C14.3945 42.2352 14.0163 42.3921 13.7438 42.6647C13.4712 42.9372 13.3145 43.3153 13.3145 43.7007C13.3145 44.0877 13.4713 44.4643 13.7438 44.7382C14.0164 45.0108 14.3945 45.1661 14.7799 45.1661C15.1653 45.1661 15.5435 45.0108 15.816 44.7382C16.0886 44.4641 16.2453 44.0877 16.2453 43.7007C16.2453 43.3153 16.0886 42.9372 15.816 42.6647Z" fill="white"/>
<path d="M29.6363 42.6647C29.3638 42.3921 28.9857 42.2352 28.6002 42.2352C28.2148 42.2352 27.8366 42.3921 27.5641 42.6647C27.2915 42.9372 27.1348 43.3153 27.1348 43.7007C27.1348 44.0877 27.2915 44.4643 27.5641 44.7382C27.8367 45.0108 28.2148 45.1661 28.6002 45.1661C28.9856 45.1661 29.3638 45.0108 29.6363 44.7382C29.9089 44.4641 30.0656 44.0861 30.0656 43.7007C30.0656 43.3153 29.9089 42.9372 29.6363 42.6647Z" fill="white"/>
<path d="M26.9481 50.7122C26.1662 50.5027 25.363 50.968 25.154 51.7497C24.7352 53.3174 23.3109 54.4125 21.6902 54.4125C20.0696 54.4125 18.6454 53.3174 18.2264 51.7497C18.0175 50.9677 17.2144 50.5024 16.4323 50.7122C15.6504 50.9212 15.1859 51.7242 15.3947 52.5063C16.1556 55.3544 18.7444 57.3437 21.6903 57.3437C24.6361 57.3437 27.225 55.3544 27.9858 52.5063C28.1945 51.7244 27.7299 50.9211 26.9481 50.7122Z" fill="white"/>
<path d="M37.5173 5.85864C36.7079 5.85864 36.0518 6.51475 36.0518 7.32422V16.628C36.0518 17.4375 36.7079 18.0936 37.5173 18.0936C38.3268 18.0936 38.9829 17.4375 38.9829 16.628V7.32422C38.9829 6.51475 38.3268 5.85864 37.5173 5.85864Z" fill="white"/>
<path d="M38.5542 20.7707C38.2815 20.4966 37.9034 20.3414 37.5182 20.3414C37.1313 20.3414 36.7545 20.4968 36.4806 20.7707C36.208 21.0433 36.0527 21.4214 36.0527 21.8068C36.0527 22.1922 36.2082 22.5704 36.4806 22.8429C36.7547 23.1155 37.1313 23.2722 37.5182 23.2722C37.9036 23.2722 38.2818 23.1155 38.5542 22.8429C38.8267 22.5703 38.9836 22.1922 38.9836 21.8068C38.9836 21.4214 38.8267 21.0433 38.5542 20.7707Z" fill="white"/>
<path d="M28.5867 19.1822L24.8452 15.4439C24.2727 14.8719 23.3446 14.8721 22.7725 15.4448C22.2005 16.0174 22.2008 16.9452 22.7734 17.5174L26.5149 21.2558C26.801 21.5417 27.1759 21.6846 27.5507 21.6846C27.926 21.6846 28.3015 21.5411 28.5875 21.2549C29.1596 20.6822 29.1593 19.7543 28.5867 19.1822Z" fill="white"/>
<path d="M52.2664 15.4477C51.6938 14.8755 50.7658 14.8759 50.1938 15.4484L46.216 19.4294C45.6438 20.002 45.6443 20.93 46.2167 21.502C46.5028 21.7881 46.8776 21.9309 47.2525 21.9309C47.6278 21.9309 48.0031 21.7877 48.2892 21.5013L52.267 17.5203C52.8393 16.9477 52.8388 16.0197 52.2664 15.4477Z" fill="white"/>
<path d="M74.2585 41.8272C71.163 30.2744 59.2459 23.3942 47.6934 26.49C43.7284 27.5524 40.2255 29.6649 37.4895 32.59C33.3958 28.2301 27.7304 25.7608 21.6902 25.7608C9.73022 25.7608 0 35.4911 0 47.4512C0 59.4112 9.73022 69.1414 21.6902 69.1414C27.7361 69.1414 33.4106 66.6645 37.5057 62.294C41.5607 66.5934 47.2793 69.1339 53.3123 69.1339C55.1651 69.1339 57.0483 68.8941 58.9211 68.3924C70.4736 65.2968 77.354 53.3795 74.2585 41.8272ZM21.6902 66.2102C11.3462 66.2102 2.93101 57.7949 2.93101 47.451C2.93101 37.1072 11.3462 28.6918 21.6902 28.6918C27.045 28.6918 32.06 30.9358 35.6191 34.8854C35.2304 35.4353 34.8639 36.0053 34.5229 36.5958C31.626 41.6133 30.8565 47.4586 32.3561 53.0548C33.0441 55.6231 34.1682 57.9601 35.6273 60.0082C32.0675 63.963 27.0469 66.2102 21.6902 66.2102ZM58.1625 65.5612C48.1712 68.2376 37.8645 62.2877 35.1873 52.2964C33.8905 47.4564 34.556 42.401 37.0613 38.0617C37.5236 37.261 38.0385 36.5028 38.6008 35.7898C38.6251 35.7618 38.6477 35.7328 38.6697 35.7034C41.1497 32.5975 44.5411 30.3692 48.4519 29.3212C50.0722 28.8872 51.6999 28.6799 53.3029 28.6799C61.5845 28.6799 69.184 34.2148 71.427 42.5858C74.1044 52.5772 68.1538 62.8839 58.1625 65.5612Z" fill="white"/>
<path d="M49.0141 44.5677C48.5606 42.8746 46.8148 41.8659 45.121 42.3199C43.4279 42.7737 42.4197 44.5199 42.8733 46.213C43.0488 46.8678 43.6409 47.2998 44.2881 47.2998C44.4135 47.2998 44.5414 47.2835 44.6682 47.2494C45.4501 47.0398 45.9141 46.2364 45.7044 45.4545C45.6691 45.3227 45.7476 45.1864 45.8795 45.1511C45.9612 45.1295 46.0268 45.1526 46.0674 45.1759C46.1079 45.1993 46.1609 45.2445 46.1829 45.3262C46.3923 46.108 47.1956 46.5722 47.9777 46.3624C48.7598 46.1531 49.2236 45.3496 49.0141 44.5677Z" fill="white"/>
<path d="M62.2808 41.013C62.0609 40.1928 61.535 39.5074 60.7997 39.0827C60.0643 38.6584 59.2077 38.5454 58.3877 38.7653C57.5675 38.985 56.8819 39.5109 56.4576 40.2463C56.0331 40.9816 55.9201 41.8381 56.14 42.6584C56.3155 43.3132 56.9076 43.745 57.5547 43.745C57.6801 43.7449 57.808 43.7288 57.935 43.6947C58.7168 43.485 59.1807 42.6816 58.9712 41.8996C58.9494 41.8179 58.9726 41.7524 58.996 41.7118C59.0194 41.6713 59.0644 41.6184 59.1463 41.5966C59.228 41.5747 59.2938 41.598 59.3342 41.6213C59.3747 41.6446 59.4275 41.6897 59.4495 41.7716C59.659 42.5534 60.4623 43.0175 61.2444 42.8078C62.0263 42.5984 62.4902 41.7949 62.2808 41.013Z" fill="white"/>
<path d="M60.9964 50.209C60.7868 49.4272 59.9832 48.963 59.2014 49.1726C58.4195 49.3822 57.9557 50.1855 58.1652 50.9675C58.6638 52.8285 57.5554 54.7485 55.6943 55.2472C54.7925 55.4888 53.8509 55.3646 53.0428 54.8981C52.2343 54.4312 51.6562 53.6779 51.4148 52.7763C51.2051 51.9945 50.4017 51.53 49.6197 51.74C48.8379 51.9496 48.374 52.7531 48.5835 53.5349C49.0278 55.1928 50.091 56.5784 51.5773 57.4365C52.5673 58.0081 53.6662 58.3002 54.7796 58.3002C55.3379 58.3002 55.8997 58.2269 56.4532 58.0784C59.8752 57.1614 61.9133 53.631 60.9964 50.209Z" fill="white"/>
</g>
<defs>
<clipPath id="clip0">
<rect width="75" height="75" fill="white"/>
</clipPath>
</defs>
</svg>
